<svg width="275" height="28" viewBox="0 0 275 28" fill="none" xmlns="http://www.w3.org/2000/svg">
<path d="M20.8477 16.7344H6.39844V12.1289H20.8477V16.7344ZM22.8867 6.39844H4.57031V27.0352H0V4.13086C0 3.81445 0.0585938 3.51562 0.175781 3.23438C0.292969 2.95312 0.451172 2.70703 0.650391 2.49609C0.861328 2.28516 1.10742 2.12109 1.38867 2.00391C1.66992 1.88672 1.97461 1.82812 2.30273 1.82812H22.8867V6.39844ZM46.2129 20.6191C46.2129 21.4043 46.1133 22.1133 45.9141 22.7461C45.7148 23.3672 45.4512 23.918 45.123 24.3984C44.7949 24.8672 44.4141 25.2715 43.9805 25.6113C43.5469 25.9395 43.0898 26.209 42.6094 26.4199C42.1406 26.6309 41.6602 26.7891 41.168 26.8945C40.6875 26.9883 40.2305 27.0352 39.7969 27.0352H31.5527C30.9199 27.0352 30.2285 26.9238 29.4785 26.7012C28.7285 26.4785 28.0312 26.1152 27.3867 25.6113C26.7539 25.0957 26.2207 24.4336 25.7871 23.625C25.3652 22.8047 25.1543 21.8027 25.1543 20.6191V14.4316C25.1543 13.2598 25.3652 12.2695 25.7871 11.4609C26.2207 10.6406 26.7539 9.97852 27.3867 9.47461C28.0312 8.95898 28.7285 8.58984 29.4785 8.36719C30.2285 8.14453 30.9199 8.0332 31.5527 8.0332H39.7969C40.9688 8.0332 41.9648 8.24414 42.7852 8.66602C43.6055 9.08789 44.2676 9.62109 44.7715 10.2656C45.2754 10.8984 45.6387 11.5898 45.8613 12.3398C46.0957 13.0898 46.2129 13.7871 46.2129 14.4316V20.6191ZM41.6426 14.4668C41.6426 13.834 41.4844 13.3652 41.168 13.0605C40.8516 12.7559 40.3945 12.6035 39.7969 12.6035H31.5879C30.9785 12.6035 30.5156 12.7617 30.1992 13.0781C29.8828 13.3828 29.7246 13.834 29.7246 14.4316V20.6191C29.7246 21.2168 29.8828 21.6738 30.1992 21.9902C30.5156 22.3066 30.9785 22.4648 31.5879 22.4648H39.7969C40.418 22.4648 40.8809 22.3066 41.1855 21.9902C41.4902 21.6738 41.6426 21.2168 41.6426 20.6191V14.4668ZM70.7871 20.6191C70.7871 21.4043 70.6875 22.1133 70.4883 22.7461C70.2891 23.3672 70.0254 23.918 69.6973 24.3984C69.3691 24.8672 68.9883 25.2715 68.5547 25.6113C68.1211 25.9395 67.6641 26.209 67.1836 26.4199C66.7148 26.6309 66.2344 26.7891 65.7422 26.8945C65.2617 26.9883 64.8047 27.0352 64.3711 27.0352H56.127C55.4941 27.0352 54.8027 26.9238 54.0527 26.7012C53.3027 26.4785 52.6055 26.1152 51.9609 25.6113C51.3281 25.0957 50.7949 24.4336 50.3613 23.625C49.9395 22.8047 49.7285 21.8027 49.7285 20.6191V14.4316C49.7285 13.2598 49.9395 12.2695 50.3613 11.4609C50.7949 10.6406 51.3281 9.97852 51.9609 9.47461C52.6055 8.95898 53.3027 8.58984 54.0527 8.36719C54.8027 8.14453 55.4941 8.0332 56.127 8.0332H64.3711C65.543 8.0332 66.5391 8.24414 67.3594 8.66602C68.1797 9.08789 68.8418 9.62109 69.3457 10.2656C69.8496 10.8984 70.2129 11.5898 70.4355 12.3398C70.6699 13.0898 70.7871 13.7871 70.7871 14.4316V20.6191ZM66.2168 14.4668C66.2168 13.834 66.0586 13.3652 65.7422 13.0605C65.4258 12.7559 64.9688 12.6035 64.3711 12.6035H56.1621C55.5527 12.6035 55.0898 12.7617 54.7734 13.0781C54.457 13.3828 54.2988 13.834 54.2988 14.4316V20.6191C54.2988 21.2168 54.457 21.6738 54.7734 21.9902C55.0898 22.3066 55.5527 22.4648 56.1621 22.4648H64.3711C64.9922 22.4648 65.4551 22.3066 65.7598 21.9902C66.0645 21.6738 66.2168 21.2168 66.2168 20.6191V14.4668ZM95.5371 20.6191C95.5371 21.4043 95.4375 22.1133 95.2383 22.7461C95.0391 23.3672 94.7754 23.918 94.4473 24.3984C94.1191 24.8672 93.7383 25.2715 93.3047 25.6113C92.8711 25.9395 92.4141 26.209 91.9336 26.4199C91.4648 26.6309 90.9844 26.7891 90.4922 26.8945C90.0117 26.9883 89.5547 27.0352 89.1211 27.0352H80.877C80.0918 27.0352 79.3887 26.9355 78.7676 26.7363C78.1465 26.5371 77.5957 26.2734 77.1152 25.9453C76.6465 25.6055 76.2422 25.2188 75.9023 24.7852C75.5742 24.3516 75.3047 23.9004 75.0938 23.4316C74.8828 22.9512 74.7246 22.4707 74.6191 21.9902C74.5254 21.498 74.4785 21.041 74.4785 20.6191V14.4316C74.4785 13.2598 74.6895 12.2695 75.1113 11.4609C75.5449 10.6406 76.0781 9.97852 76.7109 9.47461C77.3555 8.95898 78.0527 8.58984 78.8027 8.36719C79.5527 8.14453 80.2441 8.0332 80.877 8.0332H89.1211V12.6035H80.9121C80.3027 12.6035 79.8398 12.7617 79.5234 13.0781C79.207 13.3828 79.0488 13.834 79.0488 14.4316V20.584C79.0488 21.2051 79.2012 21.6738 79.5059 21.9902C79.8223 22.3066 80.2793 22.4648 80.877 22.4648H89.1211C89.7422 22.4648 90.2051 22.3066 90.5098 21.9902C90.8145 21.6738 90.9668 21.2168 90.9668 20.6191V0H95.5371V20.6191ZM132.275 20.6191H130.219L130.184 20.6719C130.184 21.4219 130.084 22.0957 129.885 22.6934C129.697 23.291 129.445 23.8184 129.129 24.2754C128.812 24.7207 128.443 25.1074 128.021 25.4355C127.6 25.7637 127.16 26.0332 126.703 26.2441C126.258 26.4434 125.801 26.5898 125.332 26.6836C124.875 26.7773 124.441 26.8242 124.031 26.8242H117.826C116.736 26.8242 115.805 26.6191 115.031 26.209C114.27 25.7988 113.637 25.2891 113.133 24.6797C112.641 24.0703 112.271 23.4082 112.025 22.6934C111.791 21.9785 111.662 21.3164 111.639 20.707V18.5801C111.639 17.6543 111.768 16.8574 112.025 16.1895C112.295 15.5098 112.646 14.9238 113.08 14.4316C112.576 13.7988 112.207 13.1133 111.973 12.375C111.75 11.6367 111.639 10.9453 111.639 10.3008C111.639 9.16406 111.844 8.20312 112.254 7.41797C112.664 6.63281 113.18 6 113.801 5.51953C114.422 5.02734 115.09 4.67578 115.805 4.46484C116.531 4.24219 117.205 4.13086 117.826 4.13086H128.127V8.24414H117.826C117.51 8.24414 117.223 8.29688 116.965 8.40234C116.719 8.49609 116.502 8.63672 116.314 8.82422C116.139 9.01172 116.004 9.23438 115.91 9.49219C115.816 9.73828 115.775 10.0078 115.787 10.3008C115.787 10.9688 115.975 11.4844 116.35 11.8477C116.725 12.1992 117.217 12.375 117.826 12.375H124.031V16.4883H117.826C117.182 16.4883 116.678 16.6875 116.314 17.0859C115.963 17.4844 115.787 17.9824 115.787 18.5801V20.5488C115.787 21.1816 115.975 21.6973 116.35 22.0957C116.736 22.4824 117.229 22.6758 117.826 22.6758H123.996C124.641 22.6758 125.145 22.4824 125.508 22.0957C125.883 21.709 126.07 21.2168 126.07 20.6191C126.07 20.1152 126.158 19.6172 126.334 19.125C126.51 18.6328 126.773 18.1934 127.125 17.8066C127.477 17.4082 127.904 17.0918 128.408 16.8574C128.924 16.6113 129.516 16.4883 130.184 16.4883H132.275V20.6191ZM173.162 16.4883C173.162 18.0234 172.893 19.4355 172.354 20.7246C171.826 22.0137 171.094 23.127 170.156 24.0645C169.219 24.9902 168.105 25.7168 166.816 26.2441C165.527 26.7715 164.127 27.0352 162.615 27.0352H150.275C149.947 27.0352 149.643 26.9766 149.361 26.8594C149.08 26.7422 148.834 26.584 148.623 26.3848C148.424 26.1738 148.266 25.9277 148.148 25.6465C148.031 25.3652 147.973 25.0605 147.973 24.7324V4.13086C147.973 3.81445 148.031 3.51562 148.148 3.23438C148.266 2.95312 148.424 2.70703 148.623 2.49609C148.834 2.28516 149.08 2.12109 149.361 2.00391C149.643 1.88672 149.947 1.82812 150.275 1.82812H162.615C164.127 1.82812 165.527 2.0918 166.816 2.61914C168.105 3.14648 169.219 3.87891 170.156 4.81641C171.094 5.74219 171.826 6.85547 172.354 8.15625C172.893 9.44531 173.162 10.8516 173.162 12.375V16.4883ZM168.592 12.375C168.592 11.4844 168.445 10.6699 168.152 9.93164C167.871 9.19336 167.467 8.56641 166.939 8.05078C166.412 7.52344 165.779 7.11914 165.041 6.83789C164.314 6.54492 163.506 6.39844 162.615 6.39844H152.543V22.4648H162.615C163.506 22.4648 164.314 22.3242 165.041 22.043C165.779 21.75 166.412 21.3457 166.939 20.8301C167.467 20.3027 167.871 19.6758 168.152 18.9492C168.445 18.2109 168.592 17.3906 168.592 16.4883V12.375ZM193.658 12.6035H183.375C182.754 12.6035 182.285 12.7617 181.969 13.0781C181.652 13.3828 181.494 13.834 181.494 14.4316V27.0352H176.924V14.4316C176.924 13.6465 177.023 12.9434 177.223 12.3223C177.422 11.7012 177.686 11.1562 178.014 10.6875C178.354 10.207 178.74 9.80273 179.174 9.47461C179.607 9.13477 180.059 8.85938 180.527 8.64844C181.008 8.4375 181.488 8.28516 181.969 8.19141C182.461 8.08594 182.918 8.0332 183.34 8.0332H193.658V12.6035ZM201.322 4.13086H196.752V0H201.322V4.13086ZM201.322 27.0352H196.752V8.0332H201.322V27.0352ZM226.775 27.0352H222.205V16.4883C222.205 15.8906 222.1 15.3574 221.889 14.8887C221.689 14.4082 221.414 13.998 221.062 13.6582C220.711 13.3184 220.295 13.0605 219.814 12.8848C219.346 12.6973 218.836 12.6035 218.285 12.6035H210.287V27.0352H205.717V10.3008C205.717 9.98438 205.775 9.69141 205.893 9.42188C206.01 9.14062 206.174 8.90039 206.385 8.70117C206.596 8.49023 206.842 8.32617 207.123 8.20898C207.404 8.0918 207.703 8.0332 208.02 8.0332H218.32C218.895 8.0332 219.498 8.09766 220.131 8.22656C220.775 8.35547 221.408 8.56641 222.029 8.85938C222.662 9.14062 223.26 9.50391 223.822 9.94922C224.396 10.3828 224.9 10.916 225.334 11.5488C225.779 12.1699 226.131 12.8906 226.389 13.7109C226.646 14.5312 226.775 15.457 226.775 16.4883V27.0352ZM253.107 27.0352H246.516L237.305 18.1406C236.789 17.6719 236.549 17.0859 236.584 16.3828C236.607 16.0547 236.689 15.75 236.83 15.4688C236.982 15.1758 237.188 14.9297 237.445 14.7305L245.795 7.99805H253.107L242.35 16.6641L253.107 27.0352ZM235.424 27.0352H230.854V0H235.424V27.0352ZM274.043 20.6191C274.043 21.4043 273.943 22.1133 273.744 22.7461C273.545 23.3672 273.281 23.918 272.953 24.3984C272.625 24.8672 272.244 25.2715 271.811 25.6113C271.377 25.9395 270.92 26.209 270.439 26.4199C269.971 26.6309 269.49 26.7891 268.998 26.8945C268.518 26.9883 268.061 27.0352 267.627 27.0352H255.252V22.4648H267.592C268.213 22.4648 268.682 22.3066 268.998 21.9902C269.314 21.6738 269.473 21.2168 269.473 20.6191C269.414 19.4004 268.799 18.791 267.627 18.791H260.543C259.535 18.791 258.68 18.6152 257.977 18.2637C257.273 17.9121 256.699 17.4727 256.254 16.9453C255.82 16.418 255.504 15.8496 255.305 15.2402C255.117 14.6309 255.023 14.0625 255.023 13.5352C255.023 12.5156 255.205 11.6602 255.568 10.9688C255.932 10.2656 256.389 9.69727 256.939 9.26367C257.49 8.83008 258.088 8.51953 258.732 8.33203C259.377 8.13281 259.98 8.0332 260.543 8.0332H271.775V12.6035H260.578C260.344 12.6035 260.156 12.6328 260.016 12.6914C259.887 12.7383 259.787 12.8086 259.717 12.9023C259.658 12.9844 259.623 13.0781 259.611 13.1836C259.6 13.2773 259.594 13.3711 259.594 13.4648C259.605 13.6523 259.641 13.7988 259.699 13.9043C259.758 14.0098 259.828 14.0859 259.91 14.1328C260.004 14.1797 260.104 14.209 260.209 14.2207C260.326 14.2207 260.438 14.2207 260.543 14.2207H267.627C268.799 14.2207 269.795 14.4316 270.615 14.8535C271.436 15.2754 272.098 15.8086 272.602 16.4531C273.105 17.0859 273.469 17.7773 273.691 18.5273C273.926 19.2773 274.043 19.9746 274.043 20.6191Z" fill="#ECF0F1"/>
</svg>
