<svg width="143" height="36" viewBox="0 0 143 36" fill="none" xmlns="http://www.w3.org/2000/svg">
<path d="M23.1504 27.0352H2.30273C1.97461 27.0352 1.66992 26.9766 1.38867 26.8594C1.10742 26.7422 0.861328 26.584 0.650391 26.3848C0.451172 26.1738 0.292969 25.9277 0.175781 25.6465C0.0585938 25.3652 0 25.0605 0 24.7324V1.82812H4.57031V22.4648H23.1504V27.0352ZM30.6387 4.13086H26.0684V0H30.6387V4.13086ZM30.6387 27.0352H26.0684V8.0332H30.6387V27.0352ZM55.9863 20.6191C55.9863 21.0527 55.9336 21.5098 55.8281 21.9902C55.7344 22.4707 55.582 22.9512 55.3711 23.4316C55.1602 23.9004 54.8848 24.3516 54.5449 24.7852C54.2168 25.2188 53.8125 25.6055 53.332 25.9453C52.8633 26.2734 52.3184 26.5371 51.6973 26.7363C51.0762 26.9355 50.373 27.0352 49.5879 27.0352H41.3438C40.9102 27.0352 40.4531 26.9883 39.9727 26.8945C39.4922 26.7891 39.0117 26.6309 38.5312 26.4199C38.0625 26.209 37.6113 25.9395 37.1777 25.6113C36.7441 25.2715 36.3574 24.8672 36.0176 24.3984C35.6895 23.918 35.4258 23.3672 35.2266 22.7461C35.0273 22.1133 34.9277 21.4043 34.9277 20.6191V0H39.498V20.6191C39.498 21.1816 39.6738 21.6328 40.0254 21.9727C40.377 22.3008 40.8164 22.4648 41.3438 22.4648H49.5879C50.1621 22.4648 50.6074 22.2949 50.9238 21.9551C51.252 21.6152 51.416 21.1699 51.416 20.6191V14.4316C51.416 13.8574 51.2461 13.4121 50.9062 13.0957C50.5664 12.7676 50.127 12.6035 49.5879 12.6035H41.3438V8.0332H49.5879C50.0215 8.0332 50.4785 8.08594 50.959 8.19141C51.4395 8.28516 51.9141 8.4375 52.3828 8.64844C52.8633 8.85938 53.3203 9.13477 53.7539 9.47461C54.1875 9.80273 54.5684 10.207 54.8965 10.6875C55.2246 11.1562 55.4883 11.7012 55.6875 12.3223C55.8867 12.9434 55.9863 13.6465 55.9863 14.4316V20.6191ZM76.5176 12.6035H66.2344C65.6133 12.6035 65.1445 12.7617 64.8281 13.0781C64.5117 13.3828 64.3535 13.834 64.3535 14.4316V27.0352H59.7832V14.4316C59.7832 13.6465 59.8828 12.9434 60.082 12.3223C60.2812 11.7012 60.5449 11.1562 60.873 10.6875C61.2129 10.207 61.5996 9.80273 62.0332 9.47461C62.4668 9.13477 62.918 8.85938 63.3867 8.64844C63.8672 8.4375 64.3477 8.28516 64.8281 8.19141C65.3203 8.08594 65.7773 8.0332 66.1992 8.0332H76.5176V12.6035ZM97.6816 20.7422C97.6816 21.375 97.5703 22.0605 97.3477 22.7988C97.125 23.5254 96.7617 24.2051 96.2578 24.8379C95.7656 25.459 95.1152 25.9805 94.3066 26.4023C93.5098 26.8242 92.5371 27.0352 91.3887 27.0352H83.1445C82.5117 27.0352 81.8262 26.9238 81.0879 26.7012C80.3613 26.4785 79.6816 26.1211 79.0488 25.6289C78.4277 25.125 77.9062 24.4746 77.4844 23.6777C77.0625 22.8691 76.8516 21.8906 76.8516 20.7422C76.8516 20.1094 76.9629 19.4238 77.1855 18.6855C77.4082 17.9473 77.7656 17.2676 78.2578 16.6465C78.7617 16.0137 79.4121 15.4863 80.209 15.0645C81.0176 14.6426 81.9961 14.4316 83.1445 14.4316H91.3887V18.791H83.1445C82.5234 18.791 82.043 18.9844 81.7031 19.3711C81.3633 19.7461 81.1934 20.2148 81.1934 20.7773C81.1934 21.375 81.3867 21.8438 81.7734 22.1836C82.1719 22.5117 82.6406 22.6758 83.1797 22.6758H91.3887C92.0098 22.6758 92.4902 22.4883 92.8301 22.1133C93.1699 21.7383 93.3398 21.2695 93.3398 20.707V14.3262C93.3398 13.7285 93.1523 13.2539 92.7773 12.9023C92.4141 12.5508 91.9512 12.375 91.3887 12.375H81.3516V8.0332H91.3887C92.0215 8.0332 92.7012 8.14453 93.4277 8.36719C94.166 8.58984 94.8457 8.95312 95.4668 9.45703C96.0996 9.94922 96.627 10.5996 97.0488 11.4082C97.4707 12.2051 97.6816 13.1777 97.6816 14.3262V20.7422ZM118.213 12.6035H107.93C107.309 12.6035 106.84 12.7617 106.523 13.0781C106.207 13.3828 106.049 13.834 106.049 14.4316V27.0352H101.479V14.4316C101.479 13.6465 101.578 12.9434 101.777 12.3223C101.977 11.7012 102.24 11.1562 102.568 10.6875C102.908 10.207 103.295 9.80273 103.729 9.47461C104.162 9.13477 104.613 8.85938 105.082 8.64844C105.562 8.4375 106.043 8.28516 106.523 8.19141C107.016 8.08594 107.473 8.0332 107.895 8.0332H118.213V12.6035ZM142.189 28.8633C142.189 29.6484 142.09 30.3516 141.891 30.9727C141.691 31.6055 141.428 32.1562 141.1 32.625C140.771 33.1055 140.391 33.5098 139.957 33.8379C139.523 34.1777 139.066 34.4531 138.586 34.6641C138.117 34.875 137.643 35.0273 137.162 35.1211C136.682 35.2266 136.225 35.2793 135.791 35.2793H127.547V30.709H135.791C136.4 30.709 136.857 30.5508 137.162 30.2344C137.467 29.918 137.619 29.4609 137.619 28.8633V8.0332H142.189V28.8633ZM135.791 27.0352H127.547C126.891 27.0352 126.188 26.9238 125.438 26.7012C124.699 26.4785 124.008 26.1152 123.363 25.6113C122.719 25.0957 122.186 24.4336 121.764 23.625C121.342 22.8047 121.131 21.8027 121.131 20.6191V8.0332H125.701V20.6191C125.701 21.2168 125.859 21.6738 126.176 21.9902C126.492 22.3066 126.961 22.4648 127.582 22.4648H135.791V27.0352Z" fill="#ECF0F1"/>
</svg>
